<svg width="512" height="512" viewBox="0 0 512 512" fill="none" xmlns="http://www.w3.org/2000/svg">
<path fill-rule="evenodd" clip-rule="evenodd" d="M306.075 220.785C280.622 215.87 261.179 211.191 256.908 210.131L256.878 209.808L256.849 209.719C261.327 208.778 283.303 204.598 307.136 206.776C350.147 210.72 345.168 152.801 310.907 162.866C323.368 130.227 275.172 117.131 266.894 159.893C261.945 185.498 257.202 204.981 256.201 209.072C256.112 209.043 256.024 209.042 255.936 209.042L255.818 209.072C254.904 204.628 250.692 182.673 252.872 158.834C256.819 115.865 198.843 120.839 208.918 155.067C176.218 142.618 163.139 190.737 205.943 199.007C231.543 203.98 251.045 208.689 255.17 209.69C255.14 209.778 255.111 209.896 255.14 209.984V210.102C250.603 211.044 228.656 215.223 204.853 213.045C161.872 209.101 166.821 267.021 201.082 256.955C188.621 289.594 236.816 302.661 245.094 259.898C249.484 237.384 253.667 219.579 255.287 212.839C255.965 226.112 254.61 239.415 251.87 252.364C248.954 266.285 244.564 279.882 239.969 293.42C235.167 306.87 230.748 320.967 228.921 335.505C226.948 350.044 227.272 365.024 230.129 379.563V379.592L230.159 379.74C230.689 382.006 232.957 383.418 235.226 382.889C237.523 382.33 238.937 380.063 238.407 377.797C235.226 364.259 234.342 350.221 235.697 336.3C236.345 329.325 237.523 322.379 239.144 315.522C240.734 308.635 242.826 301.896 244.888 294.98C248.983 281.206 252.872 267.286 255.258 253.012C257.202 241.593 258.086 229.968 257.556 218.401C258.97 227.819 260.678 243.918 259.117 260.987C255.17 303.926 313.175 298.982 303.1 264.754C335.77 277.204 348.88 229.055 306.075 220.785Z" fill="#00AB37"/>
</svg>
